<?xml version="1.0" encoding="UTF-8"?>
<svg width="58px" height="86px" viewBox="0 0 58 86" version="1.1" xmlns="http://www.w3.org/2000/svg" xmlns:xlink="http://www.w3.org/1999/xlink">
    <title>Agua</title>
    <defs></defs>
    <g id="Page-1" stroke="none" stroke-width="1" fill="none" fill-rule="evenodd">
        <g id="noun_715773_cc" fill-rule="nonzero" fill="#3185FF">
            <g id="Group" transform="translate(0.000000, 0.637820)">
                <path d="M29.15625,0.36923 C29.3842469,0.401917002 29.5939734,0.512299345 29.75,0.68173 C44.34987,16.59576 58,35.49056 58,52.8692 C58,70.2119 45.04367,84.3692 29,84.3692 C12.95623,84.3692 0,70.2119 0,52.8692 C0,35.49056 13.6502,16.59576 28.25,0.68173 C28.4792278,0.430141136 28.8206715,0.312401911 29.15625,0.36923 L29.15625,0.36923 Z M29,2.90048 C14.82245,18.50666 2,36.84666 2,52.8692 C2,69.219 14.13351,82.3692 29,82.3692 C43.86639,82.3692 56,69.219 56,52.8692 C56,36.84666 43.17761,18.50666 29,2.90048 L29,2.90048 Z" id="Shape"></path>
            </g>
        </g>
        <g id="noun_541299_cc" transform="translate(1.000000, 55.000000)" fill-rule="nonzero" fill="#3185FF">
            <path d="M21.0153846,4.97619048 C18.8307692,4.97619048 17.7230769,3.9047619 16.8,3.04761905 C15.8769231,2.16666667 15.2615385,1.64285714 14.0307692,1.64285714 C12.8,1.64285714 12.1538462,2.16666667 11.2615385,3.04761905 C10.3692308,3.9047619 9.23076923,4.97619048 7.04615385,4.97619048 C4.86153846,4.97619048 3.75384615,3.9047619 2.83076923,3.04761905 C1.90769231,2.16666667 1.29230769,1.64285714 0.0615384615,1.64285714 L0.0615384615,0.214285714 C2.24615385,0.214285714 3.35384615,1.28571429 4.27692308,2.14285714 C5.2,3.02380952 5.81538462,3.54761905 7.04615385,3.54761905 C8.27692308,3.54761905 8.92307692,3.02380952 9.81538462,2.14285714 C10.7076923,1.28571429 11.8461538,0.214285714 14.0307692,0.214285714 C16.2153846,0.214285714 17.3230769,1.28571429 18.2461538,2.14285714 C19.1692308,3.02380952 19.7846154,3.54761905 21.0153846,3.54761905 C22.2461538,3.54761905 22.8923077,3.02380952 23.7846154,2.14285714 C24.6769231,1.28571429 25.8153846,0.214285714 28,0.214285714 L28,1.64285714 C26.7692308,1.64285714 26.1230769,2.16666667 25.2307692,3.04761905 C24.3384615,3.9047619 23.2,4.97619048 21.0153846,4.97619048 Z" id="Shape"></path>
        </g>
        <g id="noun_541299_cc" transform="translate(29.000000, 55.000000)" fill-rule="nonzero" fill="#3185FF">
            <path d="M21.0153846,4.97619048 C18.8307692,4.97619048 17.7230769,3.9047619 16.8,3.04761905 C15.8769231,2.16666667 15.2615385,1.64285714 14.0307692,1.64285714 C12.8,1.64285714 12.1538462,2.16666667 11.2615385,3.04761905 C10.3692308,3.9047619 9.23076923,4.97619048 7.04615385,4.97619048 C4.86153846,4.97619048 3.75384615,3.9047619 2.83076923,3.04761905 C1.90769231,2.16666667 1.29230769,1.64285714 0.0615384615,1.64285714 L0.0615384615,0.214285714 C2.24615385,0.214285714 3.35384615,1.28571429 4.27692308,2.14285714 C5.2,3.02380952 5.81538462,3.54761905 7.04615385,3.54761905 C8.27692308,3.54761905 8.92307692,3.02380952 9.81538462,2.14285714 C10.7076923,1.28571429 11.8461538,0.214285714 14.0307692,0.214285714 C16.2153846,0.214285714 17.3230769,1.28571429 18.2461538,2.14285714 C19.1692308,3.02380952 19.7846154,3.54761905 21.0153846,3.54761905 C22.2461538,3.54761905 22.8923077,3.02380952 23.7846154,2.14285714 C24.6769231,1.28571429 25.8153846,0.214285714 28,0.214285714 L28,1.64285714 C26.7692308,1.64285714 26.1230769,2.16666667 25.2307692,3.04761905 C24.3384615,3.9047619 23.2,4.97619048 21.0153846,4.97619048 Z" id="Shape"></path>
        </g>
    </g>
</svg>